# xmcd
#
# Track frame offsets:
# 150
# 17264
# 35749
# 51671
# 66911
# 84900
# 104518
# 122999
# 140604
# 155937
# 170432
# 184544
# 200253
# 218569
#
# Disc length: 3119 seconds
#
#
# Revision: 0
# Processed by: cddbd v1.5.2PL0 Copyright (c) Steve Scherf et al.
# Submitted via: FreeRIP 2.35 
#
DISCID=c90c2d0e
DTITLE=Eduardo Viola and Pantanal - 
DYEAR=1900
DGENRE=Country
TTITLE0=Campeão de Fibra
TTITLE1=Viola, Amiga Viola
TTITLE2=Saudades de um Tropeiro
TTITLE3=Paixão Bandida
TTITLE4=Homenagem à Viola
TTITLE5=Velha Palhoça
TTITLE6=Sua Última Chance
TTITLE7=Coração Doente
TTITLE8=Destino ao Nordeste
TTITLE9=Gosto Amargo da Saudade
TTITLE10=Camisola Preta
TTITLE11=Paixão
TTITLE12=Prazer e Sedução
TTITLE13=Retrato Amassado
EXTD=
EXTT0=
EXTT1=
EXTT2=
EXTT3=
EXTT4=
EXTT5=
EXTT6=
EXTT7=
EXTT8=
EXTT9=
EXTT10=
EXTT11=
EXTT12=
EXTT13=
PLAYORDER=
